<svg width="16" height="16" viewBox="0 0 16 16" fill="none" xmlns="http://www.w3.org/2000/svg">
<path d="M15.4187 0.7686L12.1687 0.0185996C11.8155 -0.0626503 11.453 0.121725 11.3093 0.452975L9.80928 3.95297C9.67803 4.25922 9.76553 4.6186 10.0249 4.82797L11.9187 6.37797C10.7937 8.77485 8.82803 10.7686 6.38115 11.9155L4.83115 10.0217C4.61865 9.76235 4.2624 9.67485 3.95615 9.8061L0.456149 11.3061C0.121773 11.453 -0.0626018 11.8155 0.0186483 12.1686L0.768649 15.4186C0.846774 15.7561 1.14677 15.9998 1.4999 15.9998C9.50303 15.9998 15.9999 9.51547 15.9999 1.49985C15.9999 1.14985 15.7593 0.846725 15.4187 0.7686Z" fill="white"/>
</svg>
