<svg width="14" height="15" viewBox="0 0 14 15" fill="none" xmlns="http://www.w3.org/2000/svg">
<path d="M6.56543 4.13061C4.70215 4.13061 3.19923 5.63354 3.19923 7.49683C3.19923 9.36011 4.70215 10.863 6.56543 10.863C8.4287 10.863 9.93163 9.36011 9.93163 7.49683C9.93163 5.63354 8.4287 4.13061 6.56543 4.13061ZM6.56543 9.6853C5.36133 9.6853 4.37696 8.70386 4.37696 7.49683C4.37696 6.28979 5.3584 5.30835 6.56543 5.30835C7.77246 5.30835 8.7539 6.28979 8.7539 7.49683C8.7539 8.70386 7.76953 9.6853 6.56543 9.6853ZM10.8545 3.99292C10.8545 4.42944 10.5029 4.77808 10.0693 4.77808C9.6328 4.77808 9.28417 4.42651 9.28417 3.99292C9.28417 3.55933 9.63573 3.20776 10.0693 3.20776C10.5029 3.20776 10.8545 3.55933 10.8545 3.99292ZM13.084 4.78979C13.0342 3.73804 12.7939 2.8064 12.0234 2.03882C11.2558 1.27124 10.3242 1.03101 9.27245 0.978271C8.18847 0.916748 4.93946 0.916748 3.85547 0.978271C2.80665 1.02808 1.87501 1.26831 1.1045 2.03589C0.333999 2.80347 0.0966947 3.73511 0.0439604 4.78687C-0.0175628 5.87085 -0.0175628 9.11987 0.0439604 10.2039C0.093765 11.2556 0.333999 12.1873 1.1045 12.9548C1.87501 13.7224 2.80372 13.9626 3.85547 14.0154C4.93946 14.0769 8.18847 14.0769 9.27245 14.0154C10.3242 13.9656 11.2558 13.7253 12.0234 12.9548C12.791 12.1873 13.0312 11.2556 13.084 10.2039C13.1455 9.11987 13.1455 5.87378 13.084 4.78979ZM11.6836 11.3669C11.4551 11.9412 11.0127 12.3835 10.4355 12.615C9.57128 12.9578 7.5205 12.8787 6.56543 12.8787C5.61035 12.8787 3.55665 12.9548 2.69532 12.615C2.1211 12.3865 1.67872 11.9441 1.44728 11.3669C1.1045 10.5027 1.18361 8.4519 1.18361 7.49683C1.18361 6.54175 1.10743 4.48804 1.44728 3.62671C1.67579 3.05249 2.11817 2.61011 2.69532 2.37866C3.55958 2.03589 5.61035 2.11499 6.56543 2.11499C7.5205 2.11499 9.57421 2.03882 10.4355 2.37866C11.0098 2.60718 11.4521 3.04956 11.6836 3.62671C12.0264 4.49097 11.9472 6.54175 11.9472 7.49683C11.9472 8.4519 12.0264 10.5056 11.6836 11.3669Z" fill="#333333"/>
</svg>
