<svg width="12" height="16" viewBox="0 0 12 16" fill="none" xmlns="http://www.w3.org/2000/svg">
<path d="M6 0C2.68447 0 0 2.68794 0 6C0 8.22241 0.749719 8.91691 4.72722 15.2945C5.31425 16.2357 6.68641 16.2346 7.27275 15.2945C11.2523 8.91356 12 8.22197 12 6C12 2.68447 9.31206 0 6 0ZM6 14.5C2.018 8.11519 1.5 7.71212 1.5 6C1.5 3.51472 3.51472 1.5 6 1.5C8.48528 1.5 10.5 3.51472 10.5 6C10.5 7.70478 10.0261 8.04453 6 14.5ZM3.5 6C3.5 4.61928 4.61928 3.5 6 3.5C7.38072 3.5 8.5 4.61928 8.5 6C8.5 7.38072 7.38072 8.5 6 8.5C4.61928 8.5 3.5 7.38072 3.5 6Z" fill="#4F4F4F"/>
</svg>
