<svg width="16" height="10" viewBox="0 0 16 10" fill="none" xmlns="http://www.w3.org/2000/svg">
<path d="M14.9024 1.21836C15.0035 0.876562 14.9024 0.625 14.4156 0.625H12.8051C12.3949 0.625 12.2063 0.841016 12.1051 1.08164C12.1051 1.08164 11.2848 3.08047 10.1254 4.37656C9.7508 4.75117 9.57854 4.87148 9.37346 4.87148C9.27229 4.87148 9.11643 4.75117 9.11643 4.40937V1.21836C9.11643 0.808203 9.00159 0.625 8.66252 0.625H6.13049C5.87346 0.625 5.72034 0.816406 5.72034 0.994141C5.72034 1.38242 6.30002 1.47266 6.36018 2.56641V4.93984C6.36018 5.45937 6.26721 5.55508 6.06213 5.55508C5.51526 5.55508 4.18635 3.54805 3.39885 1.25117C3.24026 0.805469 3.0844 0.625 2.67151 0.625H1.06096C0.601586 0.625 0.508617 0.841016 0.508617 1.08164C0.508617 1.5082 1.05549 3.62734 3.05432 6.42734C4.38596 8.33867 6.26174 9.375 7.96799 9.375C8.99338 9.375 9.11916 9.14531 9.11916 8.74883C9.11916 6.92227 9.0262 6.75 9.54026 6.75C9.77815 6.75 10.1883 6.87031 11.1453 7.7918C12.2391 8.88555 12.4196 9.375 13.0321 9.375H14.6426C15.102 9.375 15.3344 9.14531 15.2004 8.69141C14.8942 7.73711 12.8242 5.77383 12.7313 5.64258C12.4934 5.33633 12.5617 5.19961 12.7313 4.92617C12.734 4.92344 14.7 2.15625 14.9024 1.21836Z" fill="white"/>
</svg>
